<!DOCTYPE svg PUBLIC "-//W3C//DTD SVG 20010904//EN" "http://www.w3.org/TR/2001/REC-SVG-20010904/DTD/svg10.dtd">
<svg version="1.0" xmlns="http://www.w3.org/2000/svg" width="358px" height="239px" viewBox="0 0 3580 2390" preserveAspectRatio="xMidYMid meet">
<g id="layer101" fill="#fcbb58" stroke="none">
<path d="M2410 2325 c-11 -13 12 -141 67 -364 l6 -25 -27 22 c-16 12 -44 24 -63 28 -66 12 -109 -28 -121 -113 l-7 -48 -33 58 c-61 108 -140 173 -231 191 -77 14 -158 -39 -180 -121 -23 -81 -4 -256 65 -601 20 -101 34 -186 30 -189 -10 -10 -227 57 -311 96 -133 62 -184 141 -153 236 15 45 66 85 107 85 36 0 53 18 40 42 -13 24 -61 24 -113 -2 -76 -36 -122 -146 -97 -229 36 -122 136 -185 430 -271 69 -20 127 -42 129 -48 3 -9 -3 -10 -23 -2 -14 5 -39 10 -55 10 -31 0 -90 -43 -90 -66 0 -24 -14 -15 -42 25 -31 43 -81 71 -128 71 -103 0 -123 -98 -71 -348 l27 -133 -26 -5 c-14 -3 -50 -12 -80 -19 -30 -7 -56 -13 -56 -12 -1 1 -23 72 -50 157 -43 135 -52 155 -72 158 -13 2 -24 -3 -28 -11 -3 -8 15 -80 40 -159 25 -80 46 -152 46 -161 0 -9 -9 -21 -21 -27 -29 -16 -59 -70 -59 -108 0 -72 89 -118 138 -72 28 26 36 60 28 115 l-6 45 53 14 c28 8 68 18 87 21 84 16 82 4 40 206 -43 210 -39 279 17 279 42 0 96 -66 133 -161 17 -45 49 -157 70 -248 52 -221 60 -246 85 -246 13 0 21 8 23 21 2 11 -18 112 -43 225 -68 301 -70 379 -10 379 13 0 38 -12 55 -26 60 -51 110 -181 171 -449 22 -93 43 -173 48 -178 18 -18 46 -2 46 26 l-1 27 31 -29 c42 -40 67 -51 114 -51 126 0 155 103 97 349 -28 120 -34 229 -14 249 9 9 15 5 24 -18 15 -34 38 -39 53 -12 10 16 12 16 27 -3 25 -31 69 -132 92 -210 12 -38 48 -191 82 -340 65 -291 72 -315 94 -315 38 0 36 23 -29 311 -120 531 -146 629 -165 639 -13 7 -21 5 -30 -5 -10 -12 -17 -12 -49 7 l-36 21 -54 231 c-85 365 -101 452 -101 552 0 75 3 96 19 115 19 23 19 23 55 6 73 -34 116 -137 186 -437 50 -215 47 -207 67 -214 23 -9 45 13 37 38 -6 19 -3 18 22 -6 69 -65 152 -72 198 -17 37 43 49 101 43 194 -5 68 -36 198 -61 256 -5 12 0 19 21 26 64 22 135 -30 168 -123 24 -70 30 -79 51 -79 51 0 14 125 -60 201 -63 64 -113 82 -175 60 l-41 -14 -35 49 c-67 94 -169 132 -239 91 -32 -19 -35 -19 -40 -4 -3 9 -24 98 -46 197 -47 204 -58 228 -90 190z m-366 -329 c79 -33 156 -152 214 -331 16 -49 60 -215 97 -368 l68 -278 -33 -27 c-24 -20 -34 -39 -41 -77 -10 -56 -8 -75 28 -235 47 -202 34 -280 -43 -280 -47 0 -97 54 -145 154 -38 81 -80 212 -94 294 -6 39 -5 42 16 42 35 0 69 38 69 76 0 44 -43 92 -119 133 -33 17 -62 35 -65 39 -20 34 -110 530 -122 674 -7 95 10 167 44 188 25 14 88 12 126 -4z m643 -107 c35 -13 78 -53 109 -102 20 -30 22 -41 14 -57 -6 -11 -10 -46 -8 -78 3 -53 5 -57 28 -57 21 0 25 5 25 27 -1 53 13 16 30 -77 32 -179 -2 -273 -83 -231 -74 38 -129 146 -184 358 -33 129 -34 181 -2 213 18 18 33 19 71 4z m-577 -900 c15 -27 12 -39 -9 -39 -23 0 -31 11 -41 56 l-8 33 25 -16 c13 -9 28 -24 33 -34z m-742 -540 c-2 -26 -8 -34 -23 -34 -26 0 -31 30 -10 62 21 32 38 18 33 -28z"/>
<path d="M3204 1875 c-15 -23 -15 -27 0 -50 26 -40 86 -26 86 20 0 53 -58 73 -86 30z"/>
<path d="M3273 1673 c-7 -3 -13 -15 -13 -27 0 -46 182 -831 196 -846 12 -12 16 -12 30 2 15 15 9 48 -71 404 -47 214 -91 405 -96 425 -9 37 -23 50 -46 42z"/>
</g>
<g id="layer102" fill="#fcfcfc" stroke="none">
<path d="M639 1283 c-67 -35 -99 -85 -99 -158 0 -139 158 -203 249 -100 63 72 26 123 -38 53 -48 -52 -91 -56 -128 -14 -52 60 -15 154 70 177 162 44 306 -69 375 -293 48 -155 48 -361 1 -506 -71 -215 -261 -296 -473 -199 -142 65 -230 232 -226 427 2 92 3 90 -24 90 -31 0 -36 -16 -36 -103 1 -163 53 -299 151 -392 164 -156 419 -165 563 -19 178 181 190 645 23 894 -102 153 -271 212 -408 143z"/>
<path d="M162 1249 c-26 -13 -55 -39 -70 -62 -23 -35 -27 -51 -27 -116 0 -65 4 -83 28 -124 37 -63 95 -101 155 -101 43 -1 47 1 47 23 0 20 -7 26 -48 36 -57 14 -84 37 -108 90 -67 145 58 263 206 196 105 -47 161 -175 225 -516 46 -243 62 -304 96 -362 37 -65 116 -105 131 -67 4 12 -7 27 -35 51 -54 45 -74 100 -123 348 -54 271 -74 347 -115 433 -40 83 -96 145 -157 173 -59 26 -149 25 -205 -2z"/>
<path d="M1557 1099 c-53 -31 -59 -139 -18 -337 l27 -133 -26 -5 c-14 -3 -50 -12 -80 -19 -30 -7 -56 -13 -56 -12 -1 1 -23 72 -50 157 -43 135 -52 155 -72 158 -13 2 -24 -3 -28 -11 -3 -8 15 -80 40 -159 25 -80 46 -152 46 -161 0 -9 -9 -21 -21 -27 -29 -16 -59 -70 -59 -108 0 -72 89 -118 138 -72 28 26 36 60 28 115 l-6 45 53 14 c28 8 68 18 87 21 84 16 82 4 40 206 -43 210 -39 279 17 279 42 0 96 -66 133 -161 17 -45 49 -157 70 -248 52 -221 60 -246 85 -246 13 0 21 8 23 21 2 11 -18 112 -43 225 -68 301 -70 379 -10 379 13 0 38 -12 55 -26 60 -51 110 -181 171 -449 22 -93 43 -173 48 -178 18 -18 46 -2 46 26 l-1 27 31 -29 c42 -40 67 -51 114 -51 126 0 155 103 97 349 -29 125 -34 232 -13 250 14 11 11 71 -4 71 -25 0 -61 -49 -70 -95 -10 -56 -8 -75 28 -235 47 -202 34 -280 -43 -280 -83 0 -188 193 -234 427 -9 44 -18 64 -30 68 -31 10 -72 58 -98 113 -25 56 -48 72 -102 72 -31 0 -90 -43 -90 -66 0 -24 -14 -15 -42 25 -43 61 -130 90 -181 60z m-189 -650 c-2 -26 -8 -34 -23 -34 -26 0 -31 30 -10 62 21 32 38 18 33 -28z"/>
<path d="M2026 1033 c3 -10 13 -29 24 -42 l18 -25 -5 30 c-6 31 -20 54 -33 54 -5 0 -6 -8 -4 -17z"/>
<path d="M2493 982 c4 -18 24 -62 46 -97 52 -87 88 -207 161 -530 65 -291 72 -315 94 -315 38 0 36 23 -29 311 -120 531 -146 629 -165 639 -13 7 -21 5 -30 -5 -11 -13 -17 -12 -48 7 l-35 22 6 -32z"/>
<path d="M2957 929 c-33 -19 -47 -64 -47 -151 0 -89 -12 -147 -32 -160 -24 -15 -59 -8 -92 17 -57 44 -94 22 -53 -32 31 -41 290 -337 302 -345 17 -13 40 -4 43 17 1 13 -34 61 -103 140 -57 66 -105 122 -105 125 0 3 13 11 29 17 47 17 63 62 69 188 2 60 9 116 15 123 15 19 62 14 88 -10 38 -35 64 -85 99 -185 33 -93 52 -115 78 -89 12 12 12 21 -3 67 -46 140 -102 235 -159 270 -33 20 -100 25 -129 8z"/>
<path d="M1918 299 c-26 -15 -23 -65 3 -80 33 -17 69 3 69 39 0 46 -32 65 -72 41z"/>
</g>


</svg>